<?xml version="1.0" encoding="utf-8"?>
<!-- Generator: Adobe Illustrator 19.2.0, SVG Export Plug-In . SVG Version: 6.00 Build 0)  -->
<svg version="1.1" id="Calque_1" xmlns="http://www.w3.org/2000/svg" xmlns:xlink="http://www.w3.org/1999/xlink" x="0px" y="0px"
	 viewBox="0 0 336 117" style="enable-background:new 0 0 336 117;" xml:space="preserve">
<style type="text/css">
	.st0{fill:#FFFFFF;}
</style>
<g>
	<path class="st0" d="M53.6,76.1c-0.6,0-0.9-0.3-0.9-0.9c0-3.1,0.9-5.4,2.8-6.9c1.4-1.1,3.1-1.8,5.1-2c2-0.2,4.3-0.2,6.7,0.1
		c1.3-1.9,2.6-3.9,3.8-6l4.6-7.5c0.5-3.9,1.2-7.8,2-11.5s1.7-7.2,2.6-10.5c0.9-3.2,1.9-6.2,2.9-9c1-2.7,2-5.1,3-7
		c2.6-5.3,5-7.9,7.2-7.9c0.3,0,0.7,0.1,1,0.2c0.4,0.2,0.7,0.5,1,1.1c0.1,0.2,0.2,0.8,0.4,1.5c0.1,1.2-0.1,2.6-0.5,4.3
		c-0.4,1.7-1,3.6-1.6,5.5c-0.6,1.9-1.4,3.8-2.1,5.6c-0.8,1.9-1.5,3.5-2.1,4.9L86.3,37c-0.4,2-0.9,4.2-1.3,6.7
		c-0.4,2.5-0.8,5.1-1.1,7.9c-0.3,2.8-0.6,5.7-0.8,8.7c-0.2,3-0.3,6.1-0.3,9.2c2.2,0.5,4.3,0.8,6.1,1c1.9,0.2,3.1,0,3.8-0.6
		c0.1-0.1,0.2-0.3,0.4-0.4c0.1-0.2,0.2-0.4,0.2-0.8c0-0.6,0.3-0.9,0.9-0.9c0.6,0,0.9,0.3,0.9,0.9c0,1.1-0.4,2-1.2,2.6
		c-1,0.9-2.5,1.2-4.4,1c-1.9-0.2-4.1-0.5-6.7-1c0.1,3.3,0.4,6.6,0.8,9.7c3.2,22.6,13.9,30,32,22.3c0.6-0.2,1,0,1.2,0.5
		c0.1,0.6-0.1,1-0.5,1.2c-2.9,1.2-5.8,2.2-8.8,3s-6,1.2-8.8,1.2c-2.9,0-5.6-0.5-8.3-1.4c-2.6-0.9-5-2.5-7.1-4.8
		c-4-4.3-6.6-10.5-7.9-18.7c-0.9-4.5-1.2-9.5-1.1-14.9c-1-0.2-2-0.5-3.1-0.6c-1-0.2-2-0.3-3-0.5c-2.9,4.4-5.8,8.5-8.7,12.3
		c-2.9,3.9-5.7,7.3-8.5,10.4c-8.2,9.3-15.4,14.9-21.5,16.9c-4.4,1.3-8.3,1.5-11.7,0.7c-3-0.7-5.4-2.3-7-4.8c-0.9-1.3-1.6-2.8-2-4.5
		c-0.4-1.7-0.5-3.4-0.4-5.2c0.3-3.8,1.5-7.3,3.6-10.6c1.2-1.8,2.7-3.3,4.3-4.6c1.7-1.3,3.5-2.4,5.5-3.1c4.5-1.8,9.6-2.2,15.3-1.1
		c0.5,0.1,0.8,0.5,0.6,1.1c-0.2,0.6-0.6,0.9-1.2,0.7c-2.7-0.4-5.2,0-7.5,1c-2.2,1-4.2,2.4-5.9,4.1c-1.7,1.7-3,3.6-4,5.7
		c-1,2.1-1.6,4-1.8,5.8c-0.2,1.8-0.1,3.5,0.3,5.3c0.4,1.8,1.1,3.4,2.1,4.7c1,1.4,2.2,2.4,3.8,3c1.5,0.6,3.4,0.6,5.5,0
		c5.8-1.8,12.6-7.1,20.6-16.1c2.7-3,5.4-6.3,8.1-10c2.7-3.7,5.5-7.7,8.4-11.9c-2-0.2-3.8-0.2-5.5,0s-3,0.7-4.1,1.5
		c-1.5,1.2-2.2,3.1-2.2,5.6C54.5,75.8,54.2,76.1,53.6,76.1z M69.3,66.6c0.8,0.1,1.7,0.3,2.5,0.4c0.8,0.2,1.7,0.3,2.5,0.5
		c0.1-2.5,0.2-5.2,0.5-8c0.1-0.4,0.1-0.7,0.1-1.1c0-0.4,0-0.7,0-1.1c-0.4,0.7-0.7,1.3-1.1,2c-0.4,0.6-0.8,1.3-1.1,2L69.3,66.6z
		 M87.8,29.3c1-2.2,1.9-4.3,2.7-6.4c0.8-2.1,1.5-4,2.1-5.8c0.6-1.8,1.1-3.4,1.4-4.9c0.3-1.4,0.5-2.6,0.5-3.4
		c-0.3,0.5-0.8,1.7-1.4,3.3c-0.6,1.7-1.3,3.4-1.9,5.1C90.6,19.1,90,21,89.4,23S88.3,27.2,87.8,29.3z"/>
	<path class="st0" d="M93.2,52c-0.1-0.2,0.3-0.4,1.2-0.7c0.9-0.3,1.8-0.4,2.9-0.5c1.1-0.1,2.1,0,3.1,0.3c1,0.3,1.6,0.9,1.8,1.8
		c0.2,0.7,0.1,1.9-0.1,3.6c-0.3,1.7-0.7,3.6-1.1,5.7c-0.5,2.1-1,4.4-1.5,6.8c-0.5,2.4-1,4.7-1.5,6.9c0.4-1.2,0.8-2.5,1.2-3.8
		c0.5-1.3,0.9-2.8,1.4-4.3c0.5-1.5,1.1-3.1,1.7-4.8c0.6-1.7,1.3-3.3,2.1-4.8c0.8-1.5,1.7-2.9,2.6-4.1c1-1.2,2.1-2.2,3.3-2.9
		c0.6-0.4,1.3-0.5,2-0.5s1.4,0.2,2,0.5c0.6,0.4,1.1,0.9,1.6,1.5c0.5,0.6,0.8,1.4,1,2.2c0.3,1.2,0.5,2.6,0.5,4.4c0,1.8,0,3.7-0.2,5.7
		c-0.2,2.1-0.5,4.1-0.8,6.2s-0.7,4.1-1.1,5.9c-0.5,2.7-0.9,4.6-1,5.8c-0.1,1.2,0.1,1.7,0.5,1.6c0.4-0.1,1-0.9,2-2.2
		c0.9-1.4,2.1-3.3,3.6-5.7c0.6-1.1,1.2-2.2,1.8-3.2c0.6-1.1,1.1-2,1.5-2.9c0.4-0.9,0.9-1.9,1.4-3c0.2-0.4,0.5-0.5,1-0.4
		c0.4,0.3,0.5,0.6,0.4,1c-0.4,0.9-0.9,1.9-1.5,2.9c-0.5,0.9-1,1.8-1.5,2.9c-0.5,1.1-1.2,2.2-1.8,3.4c-0.7,1.2-1.4,2.4-2.1,3.6
		c-0.8,1.2-1.6,2.3-2.4,3.4c-1.3,1.6-2.5,2.4-3.8,2.2c-1.3-0.2-2.4-1-3.5-2.5c-0.7-1-1.1-2.4-1.2-4.3c-0.1-1.9,0-4,0.3-6.2
		c0.3-2.2,0.6-4.6,1-7c0.4-2.4,0.8-4.6,1.2-6.6c0.4-2,0.6-3.6,0.7-4.9c0.1-1.3-0.1-2-0.6-2.1c-0.8-0.2-1.7,0.4-2.6,1.6
		c-0.9,1.3-1.9,2.8-2.7,4.5c-0.9,1.7-1.7,3.5-2.3,5.2c-0.7,1.8-1.2,3.1-1.5,3.9c-0.7,2-1.3,3.9-1.8,5.8c-0.5,1.9-1,3.5-1.5,5
		c-0.5,1.7-0.9,3.3-1.4,4.8c-0.1,0.1-0.1,0.1-0.1,0.2c0,0.8,0.2,1.5,0.5,2.1c0.1,0.1-0.2,0.2-0.9,0.4c-0.6,0.1-1.4,0.2-2.2,0.1
		c-0.9,0-1.7-0.2-2.5-0.4c-0.8-0.2-1.3-0.6-1.5-1.2c-0.3-0.8-0.4-2-0.3-3.5c0.1-1.5,0.4-3.3,0.7-5.3c0.3-2,0.7-4.1,1.1-6.4
		c0.4-2.3,0.8-4.5,1.1-6.7s0.5-4.2,0.5-6.2C93.7,55.1,93.5,53.4,93.2,52z"/>
	<path class="st0" d="M158.6,67.3c0.5,0.2,0.6,0.5,0.4,0.9c-2.1,4.7-4.1,8.6-6,11.6c-1.3,2.2-2.6,3.8-3.6,5
		c-1.1,1.1-2.2,1.7-3.5,1.8c-0.9,0.1-1.5-0.2-2.1-0.6c-0.5-0.5-0.9-1.1-1.2-2c-0.3-0.8-0.5-1.8-0.6-2.8c-0.1-1.1-0.1-2.2-0.1-3.3
		v-1.3c-0.2,0.5-0.4,1-0.6,1.4c-0.2,0.5-0.4,0.9-0.7,1.4c-1.7,3-3.5,5.1-5.4,6.3c-0.6,0.4-1.4,0.7-2.5,1c-1,0.3-2,0.3-2.8,0.1
		c-2.6-0.7-4.3-2.5-5.4-5.6c-0.7-1.8-1-3.9-0.9-6.1c0.1-2.2,0.4-4.5,0.9-6.7c0.5-2.2,1.3-4.3,2.2-6.3c0.9-2,1.9-3.7,2.9-5.2
		c1-1.3,1.9-2.4,2.8-3.2s1.8-1.4,2.7-1.8c0.9-0.4,1.7-0.7,2.6-0.8c0.8-0.1,1.6-0.2,2.4-0.2c1.3,0,2.4,0.2,3.2,0.7
		c0.8,0.5,1.5,1.1,2,1.8l-0.2-1.5c-0.1-0.1,0.3-0.3,1.2-0.5c0.9-0.2,1.9-0.4,3-0.5c1.1-0.1,2.2,0.1,3.1,0.4c1,0.3,1.5,1,1.6,2
		c0.1,0.9-0.1,2.3-0.8,4.3c-0.6,1.9-1.4,4.1-2.3,6.6c-0.9,2.4-1.8,4.9-2.7,7.5c-0.9,2.6-1.5,4.9-1.9,7.1c-0.1,0.7-0.2,1.4-0.4,2.2
		c-0.1,0.8-0.2,1.5-0.2,2.2c0,0.7,0.1,1.2,0.2,1.6c0.1,0.4,0.4,0.5,0.8,0.3c0.4-0.2,1-0.7,1.7-1.5c0.7-0.8,1.7-2.1,2.8-4
		c1.8-2.7,3.8-6.7,6.2-11.8C157.8,67.3,158.1,67.2,158.6,67.3z M134.4,84.5c1.8-1,3.5-3,4.9-5.8c1.5-2.9,2.7-6.3,3.7-10.5
		c0.4-1.9,0.7-3.9,1.1-5.8c0.4-1.9,0.7-3.7,0.9-5.3c-0.2-1.6-0.8-2.7-1.5-3.5c-0.8-0.7-1.7-0.9-2.7-0.5c-1,0.4-2.1,1.4-3.1,3.1
		c-1,1.7-2,3.7-2.8,5.8c-0.9,2.2-1.6,4.2-2.2,6.2s-1,3.5-1.2,4.4c-0.3,1.2-0.6,2.7-0.9,4.4c-0.3,1.7-0.4,3.2-0.3,4.6
		c0.1,1.4,0.4,2.4,1,3.1C131.9,85.5,132.9,85.4,134.4,84.5z"/>
	<path class="st0" d="M154.9,86.8c-0.1-0.8-0.1-1.6-0.1-2.5c0-7.2,2.8-14.7,2.8-14.7c3.2-19.3,7.2-41.4,10.9-49.9
		c1.7-3.9,4.9-5.6,7.6-5.6c4.6,0,6.3,2.3,6.3,5.7c0,7.4-5.9,17-12.6,23.3l-3,13.4c2.9-6.1,7.2-12.2,11.2-12.2c3.7,0,5.4,2.5,5.4,6.2
		c0,6-6.2,13.3-13.3,17.2c2.8,4.2,1.8,18.8,5.3,17.1c1.2-0.6,4.9-6.7,10.3-17.1c0.3-0.5,1.2,0.1,0.9,0.6c-7.3,14-9.5,19.1-13.3,18.9
		c-7.4-0.4-6.1-10.5-7.6-16h-1.4c-0.8,5.2-1.6,10.5-2.3,15.6L154.9,86.8L154.9,86.8z M175,50.9c-2.2,0-5.3,1.6-8.5,9.4l-1.1,5.7
		c2.7,0,3.6,1,4.4,1.3c4-3.3,6.7-11,6.7-14.5c0-0.9-0.3-1.6-1.1-1.8C175.3,50.9,175.2,50.9,175,50.9z M178.4,21.7
		c-0.1-0.8-1.3-1.6-1.7-1.6c-1.5,0-3.4,6.5-6.6,21.7c2.6-4.9,7.4-14,8.4-19.4C178.4,21.8,178.4,21.8,178.4,21.7z"/>
	<path class="st0" d="M219.7,67.3c0.5,0.2,0.6,0.5,0.4,0.9c-2.1,4.7-4.1,8.6-6,11.6c-1.3,2.2-2.6,3.8-3.6,5
		c-1.1,1.1-2.2,1.7-3.5,1.8c-0.9,0.1-1.5-0.2-2-0.6c-0.5-0.5-0.9-1.1-1.2-2c-0.3-0.8-0.5-1.8-0.6-2.8s-0.1-2.2-0.1-3.3v-1.3
		c-0.2,0.5-0.4,1-0.6,1.4c-0.2,0.5-0.4,0.9-0.7,1.4c-1.7,3-3.5,5.1-5.4,6.3c-0.6,0.4-1.4,0.7-2.5,1c-1,0.3-2,0.3-2.8,0.1
		c-2.6-0.7-4.3-2.5-5.4-5.6c-0.7-1.8-1-3.9-0.9-6.1c0.1-2.2,0.4-4.5,0.9-6.7c0.5-2.2,1.3-4.3,2.2-6.3c0.9-2,1.9-3.7,2.9-5.2
		c1-1.3,1.9-2.4,2.8-3.2c0.9-0.8,1.8-1.4,2.7-1.8c0.9-0.4,1.7-0.7,2.6-0.8c0.9-0.1,1.6-0.2,2.4-0.2c1.3,0,2.4,0.2,3.2,0.7
		c0.8,0.5,1.5,1.1,2,1.8l-0.2-1.5c-0.1-0.1,0.3-0.3,1.2-0.5c0.9-0.2,1.9-0.4,3-0.5c1.1-0.1,2.2,0.1,3.1,0.4c1,0.3,1.5,1,1.6,2
		c0.1,0.9-0.1,2.3-0.8,4.3c-0.6,1.9-1.4,4.1-2.3,6.6c-0.9,2.4-1.8,4.9-2.7,7.5c-0.9,2.6-1.5,4.9-1.9,7.1c-0.1,0.7-0.2,1.4-0.4,2.2
		c-0.1,0.8-0.2,1.5-0.2,2.2c0,0.7,0.1,1.2,0.2,1.6c0.2,0.4,0.4,0.5,0.8,0.3s1-0.7,1.7-1.5c0.7-0.8,1.7-2.1,2.8-4
		c1.8-2.7,3.8-6.7,6.2-11.8C219,67.3,219.3,67.2,219.7,67.3z M195.5,84.5c1.8-1,3.5-3,4.9-5.8c1.5-2.9,2.7-6.3,3.7-10.5
		c0.4-1.9,0.7-3.9,1.1-5.8c0.4-1.9,0.7-3.7,0.9-5.3c-0.2-1.6-0.8-2.7-1.5-3.5c-0.8-0.7-1.7-0.9-2.7-0.5c-1,0.4-2.1,1.4-3.1,3.1
		c-1,1.7-2,3.7-2.8,5.8c-0.9,2.2-1.6,4.2-2.2,6.2c-0.6,2-1,3.5-1.2,4.4c-0.3,1.2-0.6,2.7-0.9,4.4c-0.3,1.7-0.4,3.2-0.3,4.6
		s0.4,2.4,1,3.1C193,85.5,194,85.4,195.5,84.5z M204.4,32c-0.1-0.1,0.3-0.1,1.4,0.1c1.1,0.2,2.2,0.5,3.5,0.9c1.2,0.4,2.4,1,3.3,1.6
		c1,0.7,1.3,1.4,1.1,2.3c-0.3,1-0.9,2-1.8,2.9c-0.9,0.9-2,1.7-3.2,2.4c-1.2,0.7-2.6,1.4-3.9,1.9c-1.4,0.5-2.6,0.9-3.8,1.3
		c-1.2,0.3-2.2,0.5-3.1,0.6c-0.9,0.1-1.4,0-1.5-0.2c-0.2-0.3-0.1-0.7,0.4-1.2c0.5-0.5,1.1-1.1,2-1.7c0.8-0.7,1.7-1.4,2.7-2.2
		c1-0.8,1.8-1.7,2.5-2.6c0.7-0.9,1.1-1.9,1.3-2.9C205.3,34.1,205,33,204.4,32z"/>
	<path class="st0" d="M234,67.3c0.5,0.2,0.6,0.5,0.4,0.9c-2.1,4.7-4.1,8.6-6,11.6c-1.3,2.2-2.5,3.8-3.6,5c-1.1,1.1-2.2,1.7-3.5,1.8
		c-0.9,0.1-1.5-0.2-2-0.6c-0.5-0.5-0.9-1.1-1.2-2c-0.3-0.8-0.5-1.8-0.6-2.8c-0.1-1.1-0.1-2.2-0.1-3.3c0-1.1,0.2-3.1,0.7-5.9
		c0.5-2.9,1-6.1,1.6-9.8c0.6-3.7,1.3-7.6,2-11.7c0.7-4.1,1.3-8,1.9-11.6c0.5-3.6,0.9-6.8,1.1-9.5c0.2-2.7,0.1-4.5-0.2-5.3
		c-0.1-0.1,0.5-0.3,1.5-0.5c1.1-0.2,2.3-0.4,3.6-0.5c1.3-0.1,2.6,0.1,3.7,0.4c1.2,0.3,1.8,1,1.9,2c0.1,0.7-0.2,2.4-0.7,4.9
		c-0.5,2.6-1.3,5.6-2.2,9c-0.9,3.5-1.9,7.2-3,11.2c-1.1,4-2.1,7.9-3.1,11.6c-1,3.7-1.9,7-2.7,10c-0.8,3-1.3,5.2-1.5,6.6
		c-0.1,0.7-0.2,1.4-0.4,2.2c-0.1,0.8-0.2,1.5-0.2,2.2c0,0.7,0.1,1.2,0.2,1.6c0.2,0.4,0.4,0.5,0.8,0.3c0.4-0.2,1-0.7,1.7-1.5
		c0.7-0.8,1.7-2.1,2.8-4c1.8-2.7,3.8-6.7,6.2-11.8C233.3,67.3,233.6,67.2,234,67.3z"/>
	<path class="st0" d="M258.5,52.8c0.1,0.7,0,2.2-0.5,4.7c-0.5,2.5-1.1,5.4-1.8,8.7c-0.8,3.4-1.6,6.9-2.5,10.7
		c-0.9,3.8-1.7,7.3-2.5,10.7c2.2-2.9,4.1-6,5.8-9.3c1.7-3.4,3.3-6.9,4.9-10.5c0.2-0.5,0.6-0.6,1-0.4c0.2,0.1,0.3,0.2,0.4,0.4
		c0.1,0.2,0.1,0.4,0,0.6c-1.8,4.1-3.7,8.1-5.6,11.9c-1.9,3.8-4.3,7.2-7.1,10.2c-0.1,0.6-0.2,1.2-0.4,1.7c-0.1,0.5-0.2,1.1-0.4,1.6
		c-0.4,1.8-0.7,3.6-1.1,5.4c-0.4,1.9-1,3.6-1.8,5.1c-0.8,1.5-2,2.8-3.4,3.8c-1.5,1-3.5,1.5-6,1.5c-1.3,0-2.5-0.4-3.8-1
		c-1.2-0.7-1.9-1.7-2-3.1c-0.1-0.4-0.1-0.8,0-1.4c0.1-0.5,0.3-1.2,0.6-1.8c0.4-0.7,0.9-1.4,1.7-2.1c0.8-0.8,1.9-1.5,3.3-2.2
		c1-0.5,1.9-1.1,2.9-1.7c0.9-0.6,1.8-1.1,2.7-1.7c0.5-2.8,1.1-6.1,1.8-9.9c0.7-3.8,1.4-7.7,2-11.7c-0.7,1.4-1.3,2.7-1.9,3.8
		c-0.6,1.1-1.2,2.1-1.8,3.1c-1.3,2.2-2.6,3.8-3.6,5c-1.1,1.1-2.2,1.7-3.5,1.8c-0.9,0.1-1.5-0.2-2-0.6c-0.5-0.5-0.9-1.1-1.2-2
		c-0.3-0.8-0.5-1.8-0.6-2.8s-0.1-2.2-0.1-3.3c0-1.6,0.2-3.7,0.7-6.2c0.5-2.5,0.9-5,1.4-7.6c0.5-2.6,0.9-4.9,1.2-7.1
		c0.3-2.2,0.3-3.9,0-5c-0.1-0.1,0.3-0.3,1.2-0.5c0.9-0.2,1.9-0.4,3-0.5c1.1-0.1,2.2,0.1,3.1,0.4c1,0.3,1.5,1,1.6,2
		c0.1,0.9-0.1,2.3-0.8,4.3c-0.6,1.9-1.4,4.1-2.3,6.6c-0.9,2.4-1.8,4.9-2.7,7.5c-0.9,2.6-1.5,4.9-1.9,7.1c-0.1,0.7-0.2,1.4-0.4,2.2
		c-0.1,0.8-0.2,1.5-0.2,2.2c0,0.7,0.1,1.2,0.2,1.6c0.1,0.4,0.4,0.5,0.8,0.3s1-0.7,1.7-1.5c0.7-0.8,1.7-2.1,2.8-4
		c0.9-1.3,1.8-3,2.8-4.9c1-1.9,2.1-4.1,3.2-6.6c0.3-2.1,0.6-4,0.8-5.8c0.2-1.8,0.4-3.4,0.5-4.8c0.1-1.4,0.2-2.5,0.2-3.4
		c0-0.9,0-1.4-0.1-1.6c-0.2-0.2,0.2-0.4,1.1-0.8c0.9-0.3,2-0.6,3.2-0.7c1.2-0.1,2.4-0.1,3.5,0.2C257.8,51.4,258.4,51.9,258.5,52.8z
		 M238.1,99.3c-1.6,0.9-2.9,1.9-3.7,2.9c-0.8,1-1.3,1.9-1.3,2.8c-0.1,0.9,0.2,1.6,0.8,2.1c0.6,0.6,1.5,0.9,2.6,0.9
		c1.3,0.1,2.5-0.7,3.6-2.4c1.2-1.6,1.9-4.6,2.3-8.9c-0.7,0.5-1.4,0.9-2.2,1.4C239.5,98.4,238.7,98.9,238.1,99.3z"/>
	<path class="st0" d="M262.9,52.3c-0.1-0.2,0.4-0.4,1.3-0.7c0.9-0.3,2-0.4,3.2-0.5c1.2-0.1,2.3,0,3.4,0.3c1.1,0.3,1.7,0.9,2,1.8
		c0.1,0.3,0.1,0.8,0,1.5c-0.1,0.7-0.2,1.5-0.3,2.5c1.5-2.3,3-3.9,4.6-4.9c0.6-0.4,1.4-0.7,2.5-1c1-0.3,2-0.3,2.8-0.1
		c2.6,0.7,4.3,2.5,5.4,5.6c0.6,1.8,0.9,3.9,0.9,6.1c0,2.2-0.3,4.5-0.9,6.7c-0.5,2.2-1.3,4.3-2.2,6.3c-0.9,2-1.9,3.7-2.9,5.2
		c-1,1.3-1.9,2.4-2.8,3.2c-0.9,0.8-1.8,1.4-2.7,1.8c-0.9,0.4-1.7,0.7-2.6,0.8c-0.9,0.1-1.6,0.2-2.4,0.2c-1.4,0-2.6-0.3-3.6-0.8
		c-1-0.5-1.8-1.1-2.4-1.9c-0.7,2.9-1.3,5.6-1.9,8.3c-0.6,2.7-1,5.1-1.4,7.3c-0.4,2.2-0.6,4.1-0.7,5.7c-0.1,1.6,0,2.7,0.3,3.3
		c0.1,0.1-0.2,0.2-0.9,0.4c-0.6,0.1-1.4,0.2-2.2,0.1c-0.9,0-1.7-0.2-2.5-0.4c-0.8-0.2-1.3-0.6-1.5-1.2c-0.2-0.6-0.3-1.7-0.1-3.4
		c0.2-1.7,0.4-3.7,0.8-6.1c0.4-2.4,0.9-5.1,1.5-8c0.6-2.9,1.2-5.9,1.8-9c0.6-3.1,1.2-6.2,1.8-9.2c0.6-3,1-5.9,1.4-8.5
		c0.4-2.6,0.6-4.9,0.7-6.9C263.2,54.9,263.2,53.3,262.9,52.3z M277.7,53.5c-1.2,0.7-2.4,1.8-3.4,3.3c-1.1,1.5-2,3.3-2.9,5.4
		c-0.7,2.9-1.4,6-2.3,9.6c-0.9,3.5-1.7,7.1-2.5,10.8c0.5,1,1.2,1.7,2.1,2.1c0.9,0.4,1.8,0.4,2.6,0.1c1-0.4,2.1-1.4,3.1-3.1
		c1-1.7,2-3.7,2.8-5.8c0.9-2.2,1.6-4.2,2.2-6.2c0.6-2,1-3.5,1.2-4.4c0.2-0.8,0.4-1.7,0.6-2.8c0.2-1.1,0.4-2.1,0.5-3.2
		c0.1-1.1,0.2-2.1,0.1-3.1c0-1-0.2-1.8-0.5-2.4c-0.3-0.6-0.7-1-1.3-1.1C279.5,52.7,278.7,52.9,277.7,53.5z"/>
	<path class="st0" d="M304.3,52.3c1.6,1.2,3,2.9,4.1,5.4c1.1,2.4,1.9,5.1,2.2,8c0.4,2.9,0.3,5.8-0.3,8.8c-0.5,3-1.7,5.6-3.4,7.7
		c-1,1.3-2.4,2.4-4.2,3.3c-1.8,0.9-3.6,1.4-5.4,1.5c-1.8,0.2-3.5-0.1-5.1-0.8c-1.5-0.7-2.7-1.9-3.4-3.6c-0.4-1.1-0.6-2.3-0.6-3.6
		c0-1.3,0.2-2.7,0.5-4.1s0.7-2.7,1.3-4c0.5-1.3,1.2-2.4,1.9-3.4c0.3-0.3,0.7-0.4,1.1-0.2c0.4,0.4,0.4,0.7,0.1,1.1
		c-0.7,0.9-1.3,1.9-1.8,3c-0.5,1.2-0.9,2.4-1.2,3.6c-0.3,1.3-0.4,2.5-0.4,3.7c0,1.2,0.2,2.3,0.6,3.2c0.5,1.2,1.2,2,2,2.3
		c0.8,0.3,1.7,0.4,2.5,0.2c0.8-0.2,1.7-0.6,2.5-1.1c0.9-0.5,1.6-1.2,2.2-1.8c1.7-1.8,2.8-4,3.4-6.5c0.6-2.5,0.7-5,0.2-7.7
		c-0.4-2.6-1.3-5.2-2.7-7.7c-1.4-2.5-3.1-4.6-5.2-6.4c-0.2-0.2-0.1-0.6,0.5-1c0.5-0.4,1.3-0.7,2.2-1c0.9-0.2,2-0.3,3.1-0.3
		C302.4,51.4,303.4,51.7,304.3,52.3z"/>
	<path class="st0" d="M329.2,67.3c0.5,0.2,0.6,0.5,0.4,0.9c-2.1,4.7-4.1,8.6-6,11.6c-1.3,2.2-2.6,3.8-3.6,5
		c-1.1,1.1-2.2,1.7-3.5,1.8c-0.9,0.1-1.5-0.2-2-0.6c-0.5-0.5-0.9-1.1-1.2-2c-0.3-0.8-0.5-1.8-0.6-2.8c-0.1-1.1-0.1-2.2-0.1-3.3
		c0-1.6,0.2-3.7,0.7-6.2c0.5-2.5,0.9-5,1.4-7.6c0.5-2.6,0.9-4.9,1.2-7.1c0.3-2.2,0.3-3.9,0-5c-0.1-0.1,0.3-0.3,1.2-0.5
		c0.9-0.2,1.9-0.4,3-0.5c1.1-0.1,2.2,0.1,3.1,0.4c1,0.3,1.5,1,1.6,2c0.1,0.9-0.1,2.3-0.8,4.3c-0.6,1.9-1.4,4.1-2.3,6.6
		c-0.9,2.4-1.8,4.9-2.7,7.5c-0.9,2.6-1.5,4.9-1.9,7.1c-0.1,0.7-0.2,1.4-0.4,2.2s-0.2,1.5-0.2,2.2c0,0.7,0.1,1.2,0.2,1.6
		c0.2,0.4,0.4,0.5,0.8,0.3c0.4-0.2,1-0.7,1.7-1.5c0.7-0.8,1.7-2.1,2.8-4c1.8-2.7,3.8-6.7,6.2-11.8C328.5,67.3,328.8,67.2,329.2,67.3
		z M316.5,41.4c0-1.3,0.4-2.4,1.3-3.2c0.9-0.9,1.9-1.3,3.2-1.3s2.4,0.4,3.2,1.3c0.9,0.9,1.3,2,1.3,3.2c0,1.3-0.4,2.3-1.3,3.2
		c-0.9,0.9-2,1.3-3.2,1.3s-2.3-0.4-3.2-1.3C316.9,43.7,316.5,42.6,316.5,41.4z"/>
</g>
</svg>
