<svg id="Calque_1" data-name="Calque 1" xmlns="http://www.w3.org/2000/svg" viewBox="0 0 198 200.4"><title>logo_map</title><path d="M126.28,130.57l-0.77.63" transform="translate(-1 0.09)" fill="none" stroke="#bd924e" stroke-miterlimit="10"/><path d="M123.89,132.42A40.8,40.8,0,0,1,68,74.09" transform="translate(-1 0.09)" fill="none" stroke="#bd924e" stroke-miterlimit="10" stroke-dasharray="2.03 2.03"/><path d="M68.65,73.3l0.65-.76" transform="translate(-1 0.09)" fill="none" stroke="#bd924e" stroke-miterlimit="10"/><path d="M139.19,142.86A58.39,58.39,0,0,1,43,98.62,57.55,57.55,0,0,1,57.74,60.21" transform="translate(-1 0.09)" fill="none" stroke="#bd924e" stroke-miterlimit="10" stroke-width="2"/><polygon points="100.35 104.45 93.99 98.1 71.41 127.02 100.35 104.45" fill="none" stroke="#bd924e" stroke-miterlimit="10"/><polyline points="95.44 100.02 100.55 146.03 104.21 108.99" fill="#bd924e"/><polyline points="90.32 95.07 52.3 99.38 100.5 104.24" fill="#bd924e"/><path d="M101.12,40.75A58,58,0,0,0,57.41,60.57l81.25,82.75A58.15,58.15,0,0,0,101.12,40.75Z" transform="translate(-1 0.09)" fill="none" stroke="#fff" stroke-miterlimit="10" stroke-width="2"/><path d="M159,100.9l-0.32-7.43L148.4,81.26,157,82.06A59.27,59.27,0,0,0,119.87,43.7L99.1,51.1l-6.43,5-8,2.15-3-4.11-7.15,3.22-8.22,8.94,5,3.4,7.15-4.83,6.79,3.93L92.31,79l5.36,14.12L109.11,97l8.4-7.15-12-9.29,18.77,6.61,10,16.09,4.29-2.68,7.51-12.15Z" transform="translate(-1 0.09)" fill="none" stroke="#fff" stroke-miterlimit="10"/><path d="M91.31,94.89" transform="translate(-1 0.09)" fill="#bd924e"/><text transform="translate(91.56 19.57)" font-size="22.84" fill="#fff" font-family="Open Sans">N</text><text transform="translate(176.21 107.54)" font-size="22.84" fill="#fff" font-family="Open Sans">E</text><text transform="translate(94.16 194.21)" font-size="22.84" fill="#fff" font-family="Open Sans">S</text><text transform="translate(0.59 106.76)" font-size="22.84" fill="#fff" font-family="Open Sans">W</text></svg>