<svg id="Calque_1" data-name="Calque 1" xmlns="http://www.w3.org/2000/svg" viewBox="0 0 192.67 192.19"><title>logo_mobile</title><path d="M141.58,151.88l-0.77.63" transform="translate(-4 -3.65)" fill="none" stroke="#bd924e" stroke-miterlimit="10"/><path d="M139.24,153.75A66.88,66.88,0,0,1,46.88,58.29" transform="translate(-4 -3.65)" fill="none" stroke="#bd924e" stroke-miterlimit="10" stroke-dasharray="1.99 1.99"/><path d="M47.52,57.52l0.65-.76" transform="translate(-4 -3.65)" fill="none" stroke="#bd924e" stroke-miterlimit="10"/><path d="M162.74,172A95.72,95.72,0,0,1,5,99.51a94.34,94.34,0,0,1,24.23-63" transform="translate(-4 -3.65)" fill="none" stroke="#bd924e" stroke-miterlimit="10" stroke-width="2"/><polygon points="96.71 105.27 86.3 94.85 49.27 142.27 96.71 105.27" fill="none" stroke="#bd924e" stroke-miterlimit="10"/><polyline points="88.67 98.01 97.05 173.43 103.05 112.72" fill="#bd924e"/><polyline points="80.28 89.9 17.96 96.96 96.97 104.92" fill="#bd924e"/><path d="M100.33,4.65A95.08,95.08,0,0,0,28.69,37.13L161.87,172.77A95.32,95.32,0,0,0,100.33,4.65Z" transform="translate(-4 -3.65)" fill="none" stroke="#fff" stroke-miterlimit="10" stroke-width="2"/><path d="M195.14,103.25l-0.53-12.18-16.77-20,14.06,1.3c-9.06-29.27-32.06-53.13-60.83-62.87L97,21.62l-10.55,8.2L73.3,33.34l-5-6.74L56.6,31.87,43.12,46.52l8.21,5.57L63,44.18l11.14,6.45L85.9,67.33l8.79,23.15,18.75,6.45L127.22,85.2,107.59,70l30.77,10.84,16.41,26.37,7-4.39L174.1,82.86Z" transform="translate(-4 -3.65)" fill="none" stroke="#fff" stroke-miterlimit="10"/><path d="M84.26,93.39" transform="translate(-4 -3.65)" fill="#bd924e"/></svg>