<?xml version="1.0" encoding="utf-8"?>
<!-- Generator: Adobe Illustrator 16.0.0, SVG Export Plug-In . SVG Version: 6.00 Build 0)  -->
<!DOCTYPE svg PUBLIC "-//W3C//DTD SVG 1.1//EN" "http://www.w3.org/Graphics/SVG/1.1/DTD/svg11.dtd">
<svg version="1.1" id="Calque_1" xmlns="http://www.w3.org/2000/svg" xmlns:xlink="http://www.w3.org/1999/xlink" x="0px" y="0px"
	 width="444px" height="194px" viewBox="0 0 444 194" enable-background="new 0 0 444 194" xml:space="preserve">
<g>
	<path fill="#FFFFFF" d="M103.555,115.072c-0.607,0-0.911-0.304-0.911-0.911c0-3.097,0.941-5.403,2.824-6.921
		c1.396-1.094,3.11-1.762,5.146-2.004c2.034-0.242,4.265-0.212,6.694,0.091c1.275-1.882,2.551-3.886,3.825-6.012l4.554-7.468
		c0.547-3.947,1.215-7.788,2.004-11.522s1.654-7.226,2.596-10.475c0.941-3.246,1.914-6.238,2.915-8.971
		c1.002-2.732,1.988-5.069,2.96-7.013c2.61-5.283,5.01-7.925,7.195-7.925c0.303,0,0.652,0.077,1.047,0.228
		c0.395,0.153,0.744,0.532,1.049,1.139c0.12,0.244,0.241,0.76,0.363,1.549c0.061,1.153-0.122,2.596-0.546,4.325
		c-0.426,1.731-0.956,3.553-1.595,5.466c-0.637,1.912-1.352,3.796-2.14,5.647c-0.79,1.852-1.489,3.477-2.095,4.872l-3.188,6.831
		c-0.425,2.004-0.851,4.235-1.274,6.694c-0.426,2.46-0.806,5.086-1.139,7.878c-0.334,2.794-0.592,5.693-0.774,8.698
		c-0.183,3.006-0.273,6.058-0.273,9.154c2.246,0.486,4.296,0.82,6.148,1.002c1.852,0.182,3.11-0.03,3.779-0.638
		c0.121-0.121,0.243-0.258,0.364-0.41c0.121-0.15,0.183-0.409,0.183-0.773c0-0.606,0.303-0.912,0.911-0.912
		c0.605,0,0.91,0.306,0.91,0.912c0,1.093-0.396,1.974-1.184,2.641c-1.033,0.852-2.491,1.2-4.372,1.048
		c-1.883-0.15-4.13-0.47-6.74-0.957c0.121,3.341,0.395,6.59,0.819,9.746c3.219,22.587,13.875,30.025,31.97,22.314
		c0.606-0.183,1.002-0.032,1.185,0.456c0.121,0.605-0.062,1.002-0.547,1.183c-2.854,1.214-5.783,2.217-8.789,3.006
		s-5.951,1.185-8.835,1.185c-2.885,0-5.647-0.472-8.288-1.412c-2.642-0.942-4.995-2.536-7.059-4.781
		c-4.008-4.312-6.649-10.535-7.925-18.672c-0.851-4.491-1.215-9.472-1.093-14.937c-1.033-0.242-2.049-0.455-3.051-0.638
		c-1.002-0.182-1.989-0.333-2.96-0.455c-2.915,4.371-5.815,8.485-8.698,12.341c-2.885,3.857-5.725,7.332-8.516,10.428
		c-8.197,9.291-15.363,14.906-21.495,16.851c-4.433,1.275-8.35,1.518-11.749,0.729c-3.037-0.729-5.374-2.338-7.014-4.826
		c-0.911-1.337-1.562-2.839-1.958-4.509c-0.395-1.671-0.531-3.416-0.41-5.238c0.305-3.765,1.519-7.286,3.644-10.564
		c1.214-1.761,2.655-3.293,4.326-4.6c1.669-1.306,3.507-2.352,5.51-3.143c4.493-1.821,9.594-2.186,15.302-1.093
		c0.546,0.122,0.759,0.486,0.638,1.093c-0.244,0.607-0.638,0.852-1.185,0.729c-2.731-0.364-5.223-0.045-7.468,0.957
		c-2.248,1.002-4.206,2.368-5.875,4.098c-1.671,1.731-3.006,3.644-4.008,5.739c-1.002,2.095-1.594,4.021-1.775,5.783
		c-0.183,1.761-0.077,3.537,0.318,5.328c0.395,1.79,1.078,3.369,2.05,4.736c0.97,1.366,2.231,2.367,3.779,3.005
		c1.549,0.638,3.384,0.623,5.511-0.045c5.768-1.762,12.629-7.136,20.584-16.122c2.671-2.975,5.373-6.313,8.105-10.018
		c2.732-3.703,5.525-7.681,8.38-11.932c-2.003-0.183-3.841-0.183-5.511,0s-3.021,0.698-4.053,1.549
		c-1.457,1.214-2.186,3.066-2.186,5.555C104.466,114.769,104.161,115.072,103.555,115.072z M119.312,105.601
		c0.85,0.122,1.686,0.259,2.504,0.409c0.82,0.152,1.654,0.319,2.506,0.501c0.06-2.489,0.242-5.16,0.547-8.015
		c0.059-0.364,0.104-0.729,0.137-1.093c0.029-0.364,0.045-0.729,0.045-1.093c-0.364,0.668-0.744,1.32-1.139,1.958
		c-0.396,0.637-0.774,1.29-1.139,1.958L119.312,105.601z M137.801,68.349c0.971-2.186,1.867-4.312,2.687-6.376
		c0.82-2.063,1.533-4.008,2.141-5.828c0.605-1.823,1.077-3.446,1.412-4.873c0.332-1.427,0.5-2.565,0.5-3.416
		c-0.304,0.546-0.773,1.655-1.411,3.324c-0.638,1.671-1.261,3.386-1.867,5.146c-0.669,1.762-1.274,3.658-1.821,5.692
		S138.347,66.163,137.801,68.349z"/>
	<path fill="#FFFFFF" d="M143.174,91.028c-0.062-0.184,0.333-0.411,1.184-0.685c0.85-0.273,1.806-0.439,2.869-0.501
		c1.062-0.059,2.079,0.047,3.052,0.319c0.971,0.272,1.578,0.866,1.821,1.775c0.183,0.729,0.137,1.944-0.137,3.644
		c-0.273,1.701-0.653,3.613-1.139,5.738c-0.487,2.126-1.002,4.403-1.548,6.83c-0.547,2.431-1.033,4.737-1.458,6.923
		c0.364-1.214,0.774-2.488,1.229-3.825c0.455-1.335,0.926-2.763,1.412-4.28c0.547-1.518,1.123-3.127,1.73-4.828
		c0.606-1.698,1.305-3.309,2.095-4.826c0.788-1.518,1.669-2.9,2.642-4.145c0.971-1.244,2.062-2.2,3.279-2.869
		c0.605-0.365,1.259-0.547,1.957-0.547s1.352,0.182,1.959,0.547c0.606,0.364,1.139,0.865,1.594,1.503
		c0.455,0.637,0.805,1.382,1.047,2.231c0.304,1.153,0.471,2.611,0.502,4.372c0.029,1.762-0.046,3.674-0.229,5.737
		c-0.182,2.064-0.455,4.145-0.819,6.239s-0.729,4.053-1.093,5.875c-0.547,2.672-0.865,4.6-0.957,5.783
		c-0.09,1.184,0.061,1.716,0.456,1.594c0.395-0.12,1.047-0.865,1.958-2.231c0.911-1.365,2.096-3.263,3.552-5.692
		c0.606-1.093,1.198-2.171,1.776-3.233c0.576-1.061,1.078-2.033,1.503-2.915c0.425-0.88,0.88-1.866,1.366-2.959
		c0.182-0.364,0.515-0.485,1.002-0.364c0.424,0.304,0.547,0.637,0.364,1.002c-0.426,0.909-0.911,1.882-1.457,2.914
		c-0.487,0.852-1.002,1.821-1.549,2.915c-0.546,1.092-1.154,2.217-1.821,3.369c-0.669,1.216-1.383,2.431-2.141,3.644
		c-0.76,1.215-1.564,2.338-2.414,3.369c-1.275,1.64-2.549,2.368-3.824,2.187c-1.275-0.183-2.43-1.002-3.461-2.459
		c-0.729-0.971-1.125-2.414-1.185-4.326c-0.062-1.914,0.046-3.992,0.318-6.239c0.274-2.245,0.622-4.569,1.048-6.968
		c0.424-2.398,0.819-4.584,1.184-6.558c0.365-1.973,0.592-3.598,0.684-4.873c0.091-1.275-0.107-1.973-0.592-2.095
		c-0.791-0.183-1.656,0.364-2.596,1.64c-0.942,1.275-1.854,2.778-2.732,4.509c-0.881,1.729-1.656,3.477-2.322,5.236
		c-0.67,1.763-1.154,3.067-1.458,3.916c-0.669,2.005-1.275,3.932-1.821,5.784c-0.547,1.854-1.033,3.507-1.458,4.964
		c-0.486,1.701-0.942,3.31-1.366,4.828c-0.061,0.061-0.091,0.122-0.091,0.182c0,0.79,0.151,1.489,0.456,2.095
		c0.059,0.123-0.229,0.244-0.866,0.364c-0.638,0.122-1.382,0.168-2.23,0.137c-0.852-0.03-1.671-0.151-2.46-0.364
		c-0.788-0.212-1.305-0.622-1.548-1.229c-0.304-0.789-0.395-1.959-0.273-3.508c0.122-1.548,0.351-3.324,0.683-5.327
		c0.335-2.004,0.715-4.144,1.139-6.421c0.426-2.277,0.789-4.509,1.093-6.695c0.304-2.186,0.485-4.248,0.547-6.193
		C143.688,94.094,143.538,92.425,143.174,91.028z"/>
	<path fill="#FFFFFF" d="M208.568,106.329c0.485,0.243,0.606,0.546,0.364,0.911c-2.127,4.735-4.131,8.592-6.012,11.565
		c-1.336,2.187-2.551,3.842-3.643,4.965c-1.094,1.124-2.248,1.716-3.461,1.776c-0.852,0.061-1.535-0.15-2.05-0.638
		c-0.517-0.485-0.927-1.139-1.229-1.959c-0.305-0.819-0.502-1.76-0.592-2.822c-0.092-1.062-0.137-2.171-0.137-3.325v-1.275
		c-0.183,0.487-0.38,0.957-0.593,1.411c-0.214,0.457-0.44,0.927-0.683,1.413c-1.701,3.037-3.492,5.131-5.373,6.284
		c-0.607,0.364-1.429,0.698-2.46,1.002c-1.033,0.303-1.974,0.333-2.823,0.091c-2.551-0.667-4.342-2.518-5.373-5.556
		c-0.668-1.821-0.971-3.855-0.912-6.103c0.062-2.245,0.365-4.478,0.912-6.694c0.546-2.216,1.274-4.326,2.186-6.329
		c0.91-2.005,1.881-3.734,2.914-5.192c0.971-1.335,1.912-2.398,2.823-3.188s1.807-1.397,2.688-1.822
		c0.88-0.424,1.745-0.697,2.596-0.819c0.849-0.121,1.639-0.183,2.367-0.183c1.335,0,2.414,0.244,3.233,0.729
		c0.82,0.487,1.473,1.094,1.959,1.822l-0.182-1.458c-0.062-0.12,0.348-0.303,1.229-0.545c0.88-0.243,1.882-0.395,3.006-0.457
		c1.123-0.059,2.17,0.077,3.143,0.41c0.971,0.335,1.517,0.989,1.639,1.959c0.122,0.91-0.137,2.339-0.773,4.28
		c-0.638,1.943-1.412,4.13-2.323,6.558c-0.911,2.43-1.808,4.935-2.687,7.514c-0.881,2.582-1.502,4.936-1.867,7.06
		c-0.122,0.669-0.243,1.397-0.363,2.187c-0.123,0.789-0.183,1.518-0.183,2.185c0,0.669,0.075,1.2,0.228,1.595
		c0.15,0.396,0.424,0.501,0.82,0.318c0.393-0.183,0.956-0.683,1.685-1.503c0.729-0.819,1.669-2.141,2.823-3.961
		c1.761-2.733,3.825-6.68,6.193-11.842C207.839,106.329,208.142,106.207,208.568,106.329z M184.432,123.451
		c1.822-1.031,3.462-2.975,4.918-5.828c1.458-2.854,2.701-6.345,3.735-10.475c0.363-1.942,0.729-3.885,1.092-5.829
		c0.365-1.942,0.668-3.702,0.912-5.283c-0.244-1.578-0.761-2.731-1.549-3.461c-0.789-0.728-1.701-0.91-2.732-0.546
		c-1.033,0.364-2.065,1.412-3.097,3.143c-1.033,1.73-1.975,3.674-2.823,5.828c-0.852,2.157-1.58,4.236-2.187,6.24
		c-0.607,2.004-1.002,3.46-1.185,4.372c-0.305,1.214-0.592,2.672-0.865,4.371c-0.273,1.7-0.379,3.249-0.318,4.646
		c0.06,1.396,0.379,2.444,0.957,3.142C181.866,124.47,182.913,124.362,184.432,123.451z"/>
	<path fill="#FFFFFF" d="M204.864,125.819c-0.092-0.819-0.092-1.639-0.092-2.459c0-7.195,2.824-14.663,2.824-14.663
		c3.188-19.308,7.195-41.439,10.929-49.909c1.73-3.917,4.919-5.646,7.65-5.646c4.555,0,6.284,2.276,6.284,5.737
		c0,7.377-5.916,17.007-12.557,23.25l-3,13.448c2.914-6.104,7.178-12.198,11.187-12.198c3.732,0,5.372,2.549,5.372,6.192
		c0,6.011-6.243,13.32-13.256,17.235c2.823,4.19,1.797,18.843,5.271,17.078c1.21-0.614,4.889-6.677,10.346-17.141
		c0.254-0.484,1.171,0.147,0.919,0.632c-7.259,13.979-9.494,19.081-13.26,18.899c-7.369-0.357-6.139-10.475-7.597-16.029h-1.366
		c-0.82,5.19-1.64,10.474-2.277,15.573H204.864z M224.993,89.935c-2.187,0-5.316,1.594-8.483,9.353l-1.081,5.677
		c2.669,0.009,3.578,0.98,4.397,1.253c4.007-3.278,6.715-10.999,6.715-14.459c0-0.911-0.274-1.64-1.094-1.823
		C225.266,89.935,225.175,89.935,224.993,89.935z M228.368,60.666c-0.146-0.807-1.281-1.605-1.736-1.605
		c-1.457,0-3.365,6.538-6.644,21.656c2.641-4.918,7.42-14.005,8.355-19.407C228.432,60.804,228.397,60.822,228.368,60.666z"/>
	<path fill="#FFFFFF" d="M269.681,106.329c0.484,0.243,0.606,0.546,0.364,0.911c-2.126,4.735-4.13,8.592-6.011,11.565
		c-1.337,2.187-2.551,3.842-3.644,4.965c-1.093,1.124-2.247,1.716-3.461,1.776c-0.852,0.061-1.534-0.15-2.049-0.638
		c-0.518-0.485-0.927-1.139-1.229-1.959c-0.306-0.819-0.502-1.76-0.593-2.822c-0.091-1.062-0.136-2.171-0.136-3.325v-1.275
		c-0.184,0.487-0.381,0.957-0.593,1.411c-0.213,0.457-0.442,0.927-0.683,1.413c-1.701,3.037-3.493,5.131-5.375,6.284
		c-0.606,0.364-1.427,0.698-2.458,1.002c-1.034,0.303-1.975,0.333-2.823,0.091c-2.551-0.667-4.342-2.518-5.375-5.556
		c-0.667-1.821-0.971-3.855-0.909-6.103c0.06-2.245,0.363-4.478,0.909-6.694c0.547-2.216,1.275-4.326,2.187-6.329
		c0.911-2.005,1.882-3.734,2.914-5.192c0.972-1.335,1.913-2.398,2.823-3.188c0.911-0.789,1.807-1.397,2.688-1.822
		c0.88-0.424,1.745-0.697,2.596-0.819c0.85-0.121,1.64-0.183,2.368-0.183c1.334,0,2.413,0.244,3.233,0.729
		c0.82,0.487,1.471,1.094,1.958,1.822l-0.183-1.458c-0.062-0.12,0.349-0.303,1.23-0.545c0.879-0.243,1.881-0.395,3.006-0.457
		c1.122-0.059,2.17,0.077,3.143,0.41c0.971,0.335,1.516,0.989,1.639,1.959c0.121,0.91-0.136,2.339-0.773,4.28
		c-0.639,1.943-1.413,4.13-2.323,6.558c-0.911,2.43-1.808,4.935-2.687,7.514c-0.881,2.582-1.503,4.936-1.867,7.06
		c-0.123,0.669-0.244,1.397-0.365,2.187c-0.122,0.789-0.182,1.518-0.182,2.185c0,0.669,0.076,1.2,0.228,1.595
		c0.151,0.396,0.424,0.501,0.819,0.318c0.395-0.183,0.957-0.683,1.686-1.503c0.729-0.819,1.669-2.141,2.824-3.961
		c1.76-2.733,3.824-6.68,6.192-11.842C268.952,106.329,269.256,106.207,269.681,106.329z M245.544,123.451
		c1.822-1.031,3.462-2.975,4.919-5.828c1.458-2.854,2.701-6.345,3.733-10.475c0.364-1.942,0.729-3.885,1.094-5.829
		c0.364-1.942,0.668-3.702,0.91-5.283c-0.242-1.578-0.76-2.731-1.548-3.461c-0.79-0.728-1.7-0.91-2.731-0.546
		c-1.034,0.364-2.066,1.412-3.098,3.143c-1.033,1.73-1.974,3.674-2.823,5.828c-0.852,2.157-1.579,4.236-2.186,6.24
		c-0.608,2.004-1.003,3.46-1.185,4.372c-0.305,1.214-0.592,2.672-0.866,4.371c-0.272,1.7-0.379,3.249-0.318,4.646
		s0.38,2.444,0.957,3.142C242.979,124.47,244.026,124.362,245.544,123.451z M254.379,70.989c-0.121-0.12,0.349-0.091,1.412,0.092
		c1.062,0.182,2.215,0.486,3.461,0.91c1.244,0.426,2.353,0.972,3.325,1.64c0.97,0.668,1.334,1.428,1.093,2.277
		c-0.305,1.033-0.911,1.989-1.822,2.868c-0.91,0.882-1.989,1.687-3.233,2.415c-1.245,0.729-2.551,1.352-3.917,1.866
		c-1.365,0.518-2.642,0.942-3.824,1.274c-1.185,0.335-2.201,0.548-3.052,0.639c-0.851,0.09-1.366,0.016-1.549-0.228
		c-0.242-0.304-0.122-0.697,0.365-1.185c0.485-0.485,1.139-1.062,1.958-1.73c0.819-0.667,1.715-1.412,2.688-2.231
		c0.97-0.82,1.79-1.685,2.459-2.597c0.667-0.909,1.106-1.88,1.319-2.914C255.274,73.055,255.047,72.021,254.379,70.989z"/>
	<path fill="#FFFFFF" d="M283.979,106.329c0.485,0.243,0.606,0.546,0.364,0.911c-2.126,4.735-4.129,8.592-6.012,11.565
		c-1.336,2.187-2.55,3.842-3.643,4.965c-1.093,1.124-2.247,1.716-3.461,1.776c-0.851,0.061-1.534-0.15-2.05-0.638
		c-0.517-0.485-0.924-1.139-1.229-1.959c-0.304-0.819-0.502-1.76-0.593-2.822c-0.091-1.062-0.136-2.171-0.136-3.325
		c0-1.093,0.227-3.065,0.683-5.92c0.455-2.854,1.001-6.116,1.639-9.791c0.638-3.674,1.306-7.574,2.004-11.704
		c0.697-4.129,1.321-7.999,1.867-11.612c0.547-3.612,0.926-6.771,1.139-9.473c0.212-2.7,0.137-4.477-0.228-5.328
		c-0.061-0.121,0.455-0.303,1.549-0.546c1.093-0.242,2.307-0.395,3.643-0.456c1.335-0.06,2.579,0.077,3.734,0.41
		c1.152,0.334,1.79,0.987,1.913,1.958c0.06,0.729-0.183,2.368-0.729,4.918c-0.546,2.551-1.274,5.556-2.186,9.018
		c-0.911,3.461-1.913,7.211-3.005,11.248c-1.094,4.039-2.141,7.91-3.143,11.612c-1.002,3.704-1.898,7.045-2.688,10.019
		c-0.79,2.977-1.307,5.162-1.548,6.559c-0.123,0.669-0.243,1.397-0.364,2.187c-0.123,0.789-0.183,1.518-0.183,2.185
		c0,0.669,0.076,1.2,0.228,1.595c0.151,0.396,0.424,0.501,0.82,0.318c0.395-0.183,0.956-0.683,1.685-1.503
		c0.729-0.819,1.67-2.141,2.824-3.961c1.76-2.733,3.824-6.68,6.192-11.842C283.25,106.329,283.553,106.207,283.979,106.329z"/>
	<path fill="#FFFFFF" d="M308.479,91.756c0.121,0.669-0.046,2.231-0.5,4.69c-0.456,2.459-1.062,5.374-1.822,8.744
		c-0.76,3.369-1.594,6.938-2.505,10.702c-0.91,3.765-1.73,7.318-2.459,10.656c2.186-2.854,4.128-5.967,5.829-9.336
		c1.7-3.37,3.339-6.877,4.919-10.521c0.242-0.485,0.576-0.605,1.001-0.363c0.183,0.061,0.319,0.197,0.41,0.409
		c0.092,0.214,0.076,0.41-0.046,0.593c-1.821,4.129-3.688,8.092-5.602,11.885c-1.912,3.796-4.296,7.181-7.148,10.155
		c-0.122,0.607-0.244,1.185-0.364,1.731c-0.122,0.546-0.244,1.094-0.364,1.639c-0.364,1.762-0.745,3.567-1.139,5.42
		c-0.396,1.853-1.002,3.553-1.822,5.101c-0.819,1.548-1.958,2.823-3.415,3.825c-1.458,1.002-3.461,1.503-6.012,1.503
		c-1.274,0-2.536-0.35-3.779-1.048c-1.244-0.698-1.928-1.716-2.05-3.051c-0.06-0.364-0.06-0.82,0-1.365
		c0.062-0.548,0.273-1.155,0.638-1.822c0.364-0.669,0.94-1.383,1.73-2.141c0.788-0.76,1.882-1.503,3.279-2.231
		c0.971-0.547,1.926-1.108,2.868-1.686c0.941-0.577,1.836-1.139,2.688-1.685c0.485-2.794,1.076-6.103,1.775-9.928
		c0.698-3.825,1.352-7.71,1.959-11.658c-0.669,1.397-1.307,2.656-1.913,3.78c-0.607,1.124-1.216,2.141-1.821,3.05
		c-1.336,2.187-2.551,3.842-3.643,4.965c-1.094,1.124-2.248,1.716-3.463,1.776c-0.85,0.061-1.533-0.15-2.048-0.638
		c-0.518-0.485-0.926-1.139-1.23-1.959c-0.303-0.819-0.501-1.76-0.592-2.822c-0.091-1.062-0.137-2.171-0.137-3.325
		c0-1.64,0.228-3.703,0.684-6.193c0.455-2.489,0.925-5.009,1.411-7.56c0.485-2.551,0.88-4.933,1.185-7.149
		c0.304-2.217,0.304-3.871,0-4.965c-0.061-0.12,0.349-0.303,1.229-0.545c0.88-0.243,1.881-0.395,3.006-0.457
		c1.123-0.059,2.17,0.077,3.142,0.41c0.971,0.335,1.518,0.989,1.64,1.959c0.122,0.91-0.137,2.339-0.774,4.28
		c-0.638,1.943-1.41,4.13-2.322,6.558c-0.91,2.43-1.807,4.935-2.688,7.514c-0.88,2.582-1.502,4.936-1.866,7.06
		c-0.122,0.669-0.244,1.397-0.364,2.187c-0.122,0.789-0.182,1.518-0.182,2.185c0,0.669,0.074,1.2,0.228,1.595
		c0.15,0.396,0.424,0.501,0.818,0.318s0.958-0.683,1.687-1.503c0.729-0.819,1.669-2.141,2.822-3.961
		c0.851-1.336,1.776-2.961,2.778-4.874c1.002-1.912,2.079-4.112,3.233-6.603c0.303-2.063,0.576-4.008,0.819-5.83
		c0.243-1.82,0.425-3.43,0.547-4.826c0.121-1.396,0.197-2.535,0.228-3.416c0.03-0.88-0.016-1.412-0.136-1.594
		c-0.183-0.183,0.195-0.439,1.139-0.774c0.939-0.333,2.017-0.561,3.233-0.684c1.214-0.12,2.367-0.059,3.46,0.183
		C307.751,90.36,308.356,90.906,308.479,91.756z M288.077,138.298c-1.641,0.911-2.869,1.867-3.688,2.868
		c-0.82,1.003-1.261,1.928-1.321,2.779c-0.061,0.85,0.212,1.562,0.82,2.14c0.606,0.577,1.486,0.865,2.642,0.865
		c1.275,0.06,2.488-0.729,3.643-2.368c1.152-1.64,1.912-4.614,2.277-8.926c-0.669,0.485-1.398,0.941-2.187,1.366
		C289.474,137.447,288.744,137.872,288.077,138.298z"/>
	<path fill="#FFFFFF" d="M312.85,91.301c-0.062-0.182,0.379-0.41,1.319-0.684c0.941-0.273,2.006-0.439,3.189-0.501
		c1.184-0.06,2.307,0.046,3.369,0.318c1.062,0.274,1.715,0.866,1.959,1.776c0.12,0.305,0.137,0.806,0.045,1.503
		c-0.091,0.698-0.197,1.534-0.318,2.505c1.457-2.307,2.974-3.946,4.555-4.918c0.604-0.365,1.425-0.697,2.459-1.002
		c1.031-0.303,1.972-0.334,2.822-0.092c2.551,0.669,4.342,2.521,5.374,5.557c0.606,1.82,0.896,3.857,0.865,6.102
		c-0.03,2.247-0.318,4.479-0.865,6.694c-0.546,2.219-1.274,4.327-2.187,6.331c-0.91,2.004-1.882,3.734-2.914,5.191
		c-0.973,1.336-1.912,2.399-2.823,3.188c-0.91,0.79-1.808,1.398-2.688,1.821c-0.88,0.427-1.746,0.699-2.595,0.82
		c-0.852,0.121-1.64,0.182-2.368,0.182c-1.397,0-2.582-0.259-3.553-0.774c-0.972-0.515-1.761-1.138-2.367-1.867
		c-0.67,2.854-1.292,5.616-1.867,8.289c-0.578,2.671-1.048,5.101-1.412,7.286c-0.364,2.187-0.607,4.083-0.729,5.692
		c-0.122,1.608-0.031,2.717,0.273,3.324c0.06,0.121-0.229,0.242-0.865,0.364c-0.638,0.121-1.381,0.167-2.231,0.137
		c-0.85-0.031-1.67-0.151-2.46-0.364c-0.788-0.213-1.305-0.623-1.548-1.229c-0.242-0.608-0.287-1.746-0.137-3.415
		c0.152-1.671,0.426-3.705,0.82-6.103c0.395-2.399,0.88-5.056,1.457-7.97c0.578-2.914,1.169-5.92,1.775-9.017
		c0.608-3.098,1.2-6.162,1.776-9.199c0.578-3.035,1.048-5.858,1.412-8.471c0.364-2.609,0.606-4.918,0.729-6.922
		C313.243,93.851,313.152,92.334,312.85,91.301z M327.696,92.484c-1.217,0.729-2.355,1.838-3.416,3.325
		c-1.063,1.487-2.02,3.294-2.869,5.418c-0.669,2.855-1.428,6.044-2.277,9.564c-0.851,3.522-1.7,7.136-2.55,10.838
		c0.485,1.033,1.184,1.747,2.095,2.141c0.91,0.396,1.791,0.441,2.641,0.137c1.032-0.364,2.064-1.412,3.098-3.143
		c1.031-1.729,1.972-3.672,2.823-5.828c0.85-2.155,1.578-4.236,2.187-6.239c0.605-2.005,1.001-3.461,1.184-4.372
		c0.182-0.789,0.378-1.715,0.592-2.778c0.212-1.062,0.378-2.125,0.501-3.188c0.12-1.062,0.166-2.079,0.137-3.052
		c-0.031-0.97-0.183-1.761-0.456-2.368c-0.273-0.605-0.714-0.985-1.32-1.138C329.456,91.651,328.666,91.878,327.696,92.484z"/>
	<path fill="#FFFFFF" d="M354.29,91.301c1.64,1.154,3.02,2.945,4.144,5.374c1.122,2.429,1.867,5.085,2.231,7.969
		c0.364,2.885,0.273,5.815-0.273,8.789c-0.546,2.976-1.67,5.557-3.369,7.742c-1.034,1.336-2.43,2.444-4.19,3.324
		c-1.762,0.882-3.552,1.396-5.374,1.549c-1.82,0.15-3.506-0.107-5.054-0.774c-1.549-0.668-2.688-1.882-3.416-3.644
		c-0.425-1.092-0.638-2.307-0.638-3.643c0-1.335,0.152-2.688,0.456-4.054s0.728-2.687,1.274-3.962
		c0.547-1.274,1.185-2.397,1.913-3.369c0.303-0.304,0.667-0.364,1.093-0.183c0.364,0.364,0.394,0.729,0.091,1.093
		c-0.669,0.851-1.261,1.854-1.776,3.005c-0.515,1.155-0.91,2.369-1.184,3.644c-0.272,1.275-0.41,2.521-0.41,3.735
		c0,1.215,0.214,2.276,0.638,3.187c0.547,1.216,1.229,1.99,2.05,2.324c0.819,0.334,1.653,0.395,2.505,0.181
		c0.849-0.211,1.699-0.591,2.55-1.139c0.85-0.546,1.578-1.152,2.186-1.82c1.699-1.823,2.838-3.977,3.416-6.468
		c0.576-2.488,0.651-5.039,0.228-7.65c-0.426-2.61-1.32-5.16-2.687-7.65c-1.367-2.489-3.112-4.614-5.237-6.376
		c-0.243-0.242-0.091-0.561,0.455-0.956c0.547-0.394,1.289-0.713,2.231-0.957c0.941-0.241,1.973-0.333,3.097-0.272
		C352.362,90.36,353.379,90.694,354.29,91.301z"/>
	<path fill="#FFFFFF" d="M379.244,106.329c0.485,0.243,0.606,0.546,0.364,0.911c-2.126,4.735-4.129,8.592-6.011,11.565
		c-1.337,2.187-2.551,3.842-3.644,4.965c-1.093,1.124-2.247,1.716-3.461,1.776c-0.851,0.061-1.535-0.15-2.049-0.638
		c-0.518-0.485-0.925-1.139-1.229-1.959c-0.304-0.819-0.502-1.76-0.593-2.822c-0.091-1.062-0.137-2.171-0.137-3.325
		c0-1.64,0.228-3.703,0.684-6.193c0.455-2.489,0.925-5.009,1.411-7.56c0.485-2.551,0.88-4.933,1.185-7.149
		c0.303-2.217,0.303-3.871,0-4.965c-0.062-0.12,0.349-0.303,1.229-0.545c0.879-0.243,1.881-0.395,3.006-0.457
		c1.122-0.059,2.17,0.077,3.143,0.41c0.971,0.335,1.517,0.989,1.639,1.959c0.121,0.91-0.136,2.339-0.774,4.28
		c-0.637,1.943-1.411,4.13-2.322,6.558c-0.91,2.43-1.808,4.935-2.687,7.514c-0.881,2.582-1.503,4.936-1.868,7.06
		c-0.122,0.669-0.242,1.397-0.364,2.187s-0.181,1.518-0.181,2.185c0,0.669,0.075,1.2,0.227,1.595
		c0.151,0.396,0.424,0.501,0.82,0.318c0.395-0.183,0.956-0.683,1.685-1.503c0.729-0.819,1.67-2.141,2.824-3.961
		c1.76-2.733,3.824-6.68,6.192-11.842C378.516,106.329,378.819,106.207,379.244,106.329z M366.493,80.371
		c0-1.275,0.424-2.353,1.274-3.233c0.85-0.879,1.913-1.321,3.188-1.321s2.353,0.442,3.233,1.321c0.88,0.881,1.32,1.958,1.32,3.233
		c0,1.274-0.44,2.338-1.32,3.188c-0.881,0.852-1.958,1.275-3.233,1.275s-2.339-0.424-3.188-1.275
		C366.917,82.709,366.493,81.646,366.493,80.371z"/>
</g>
</svg>
